<svg width="23" height="15" viewBox="0 0 23 15" fill="none" xmlns="http://www.w3.org/2000/svg">
<path d="M23 7.1642C22.9004 7.3209 22.8132 7.49327 22.699 7.63226C21.029 9.66116 19.3556 11.686 17.6823 13.7108C17.4043 14.0467 17.1348 14.0916 16.8912 13.845C16.6847 13.6365 16.6408 13.2843 16.7961 13.0179C16.8602 12.9075 16.9384 12.8081 17.0172 12.712C18.3395 11.1082 19.6634 9.50651 20.9868 7.90341C21.0425 7.83596 21.0948 7.76375 21.1837 7.64861H20.8799C14.1718 7.64861 7.4643 7.64861 0.75622 7.64656C0.630183 7.64656 0.501333 7.63566 0.379798 7.60024C0.147418 7.53211 0 7.28616 0 7.00342C0 6.72272 0.152482 6.46996 0.379798 6.40524C0.501896 6.37049 0.630746 6.35755 0.75622 6.35755C7.4491 6.3555 14.142 6.3555 20.8349 6.3555H21.1843C21.0976 6.24377 21.0425 6.16951 20.984 6.09934C19.6403 4.47035 18.2933 2.84477 16.9576 1.20625C16.8371 1.05841 16.7516 0.8329 16.7167 0.626466C16.6762 0.387331 16.8034 0.195886 16.9834 0.0807465C17.1719 -0.039162 17.3582 -0.0282613 17.5281 0.131844C17.6102 0.209512 17.6868 0.297399 17.761 0.386649C19.4029 2.37263 21.0453 4.35862 22.6838 6.34869C22.8036 6.49381 22.8953 6.67299 23 6.8365V7.16284V7.1642Z" fill="#1D1D1D"/>
</svg>
