<svg width="23" height="13" viewBox="0 0 23 13" fill="none" xmlns="http://www.w3.org/2000/svg">
<path d="M-1.37051e-06 5.86047C0.0995889 5.72616 0.186801 5.57841 0.301022 5.45929C1.97101 3.72022 3.64437 1.98466 5.31773 0.249106C5.59569 -0.0387913 5.8652 -0.077333 6.10884 0.134064C6.31534 0.312759 6.35922 0.614671 6.20393 0.843004C6.13978 0.937606 6.06157 1.02287 5.9828 1.10521C4.66054 2.47987 3.33659 3.85278 2.01321 5.22687C1.9575 5.28468 1.90518 5.34658 1.81628 5.44527L2.12011 5.44527C8.82819 5.44527 15.5357 5.44527 22.2438 5.44702C22.3698 5.44702 22.4987 5.45637 22.6202 5.48673C22.8526 5.54513 23 5.75594 23 5.99829C23 6.23889 22.8475 6.45554 22.6202 6.51102C22.4981 6.5408 22.3693 6.55189 22.2438 6.55189C15.5509 6.55365 8.85801 6.55365 2.16513 6.55365L1.81571 6.55365C1.90236 6.64942 1.9575 6.71307 2.01602 6.77322C3.35966 8.16949 4.70668 9.56284 6.04244 10.9673C6.16285 11.094 6.24838 11.2873 6.28326 11.4642C6.32377 11.6692 6.19661 11.8333 6.01656 11.932C5.82807 12.0348 5.64183 12.0254 5.4719 11.8882C5.38975 11.8216 5.31323 11.7463 5.23896 11.6698C3.59711 9.96753 1.95469 8.26526 0.316214 6.55948C0.196368 6.4351 0.104653 6.28151 -1.39506e-06 6.14136L-1.37061e-06 5.86164L-1.37051e-06 5.86047Z" fill="white"/>
</svg>
