<svg width="191" height="191" viewBox="0 0 191 191" fill="none" xmlns="http://www.w3.org/2000/svg">
<path d="M90.697 190.823L88.551 190.685L89.3032 178.98L85.7721 178.753L85.8974 176.802L91.5745 177.167L90.697 190.823Z" fill="#1D1D1D"/>
<path d="M81.8606 175.916C82.9038 176.078 83.6564 176.498 84.1185 177.176C84.5805 177.854 84.7278 178.734 84.5602 179.816L83.459 186.926C83.2915 188.007 82.8849 188.802 82.2393 189.308C81.5937 189.815 80.7493 189.988 79.7061 189.826C78.6629 189.664 77.9103 189.245 77.4482 188.566C76.9862 187.888 76.8389 187.008 77.0065 185.926L78.1077 178.817C78.2753 177.735 78.6818 176.941 79.3274 176.434C79.973 175.927 80.8174 175.755 81.8606 175.916ZM81.5614 177.848C80.8272 177.735 80.3914 178.122 80.2537 179.011L79.1106 186.391C78.973 187.279 79.2712 187.78 80.0054 187.894C80.7395 188.008 81.1754 187.62 81.313 186.732L82.4561 179.352C82.5937 178.463 82.2955 177.962 81.5614 177.848Z" fill="#1D1D1D"/>
<path d="M74.222 174.246C75.2331 174.5 75.9325 174.979 76.3201 175.681C76.7046 176.396 76.7616 177.291 76.4912 178.365L74.735 185.342C74.4645 186.416 73.9923 187.17 73.3183 187.606C72.6412 188.053 71.797 188.15 70.7859 187.895C69.7749 187.641 69.0771 187.156 68.6926 186.441C68.305 185.739 68.2464 184.85 68.5168 183.776L68.8031 182.639L70.7748 183.135L70.455 184.405C70.2355 185.277 70.4859 185.804 71.2063 185.985C71.9267 186.167 72.3967 185.821 72.6162 184.949L74.444 177.688C74.6604 176.829 74.4083 176.309 73.6879 176.127C72.9675 175.946 72.4992 176.285 72.2828 177.144L71.629 179.742L72.6717 180.004L72.1944 181.9L69.1802 181.141L70.273 176.8C70.5435 175.725 71.0173 174.964 71.6944 174.517C72.3684 174.082 73.211 173.991 74.222 174.246Z" fill="#1D1D1D"/>
<path d="M67.2455 172.017C68.2409 172.368 68.9029 172.92 69.2317 173.672C69.5604 174.424 69.5425 175.316 69.1778 176.348L66.7817 183.132C66.4171 184.164 65.8707 184.869 65.1426 185.248C64.4145 185.626 63.5528 185.64 62.5574 185.288C61.562 184.937 60.9 184.385 60.5712 183.633C60.2425 182.881 60.2604 181.989 60.6251 180.957L63.0212 174.173C63.3858 173.141 63.9322 172.436 64.6603 172.057C65.3884 171.678 66.2501 171.665 67.2455 172.017ZM66.5944 173.86C65.8939 173.612 65.3939 173.913 65.0944 174.761L62.6071 181.802C62.3076 182.65 62.5081 183.198 63.2085 183.445C63.909 183.692 64.409 183.392 64.7085 182.544L67.1958 175.503C67.4953 174.655 67.2948 174.107 66.5944 173.86Z" fill="#1D1D1D"/>
<path d="M39.372 154.682C40.1307 155.378 40.5135 156.127 40.5204 156.929C40.5177 157.722 40.1552 158.513 39.4328 159.3L34.4639 164.717C33.7415 165.505 32.9852 165.934 32.1949 166.005C31.3951 166.067 30.6159 165.75 29.8571 165.054C29.0984 164.358 28.7204 163.613 28.7231 162.82C28.7162 162.018 29.0739 161.223 29.7963 160.435L30.7742 159.369L32.2725 160.744L31.2021 161.911C30.6294 162.535 30.6072 163.089 31.1354 163.574C31.6636 164.058 32.2141 163.989 32.7867 163.364L37.9538 157.732C38.5177 157.117 38.5355 156.567 38.0072 156.083C37.479 155.598 36.933 155.663 36.3691 156.278L34.9551 157.819L33.4569 156.445L34.7652 155.019C35.4876 154.231 36.2487 153.806 37.0486 153.744C37.8388 153.673 38.6132 153.986 39.372 154.682Z" fill="#1D1D1D"/>
<path d="M26.0752 161.007L23.9371 158.645C23.1937 157.823 22.8448 157.049 22.8903 156.323C22.9261 155.605 23.3402 154.887 24.1326 154.17L24.7559 153.606C25.8092 152.653 26.7908 152.397 27.7007 152.839L27.7297 152.813C27.4958 152.322 27.4877 151.837 27.7053 151.359C27.9142 150.871 28.3182 150.356 28.9173 149.814L30.7002 148.2C30.9901 147.938 31.2181 147.714 31.3843 147.528C31.5407 147.352 31.6709 147.146 31.7749 146.911L33.2441 148.535C33.1322 148.741 33.0126 148.92 32.8852 149.07C32.7577 149.221 32.5055 149.467 32.1287 149.808L30.2733 151.487C29.8095 151.907 29.5557 152.277 29.512 152.598C29.4596 152.909 29.5995 153.248 29.9318 153.615L30.4303 154.166L34.7788 150.231L36.2217 151.825L26.0752 161.007ZM28.4561 154.898C28.1675 154.579 27.8711 154.417 27.5669 154.411C27.254 154.395 26.9042 154.562 26.5177 154.912L25.735 155.62C25.3678 155.953 25.1632 156.261 25.1214 156.545C25.0708 156.819 25.1723 157.096 25.4259 157.376L26.0818 158.101L28.9808 155.478L28.4561 154.898Z" fill="#1D1D1D"/>
<path d="M20.1177 154.039L16.603 149.344L18.168 148.172L20.394 151.146L23.2892 148.979L21.5201 146.615L23.0851 145.444L24.8542 147.807L28.2189 145.288L25.9929 142.315L27.5579 141.143L31.0726 145.838L20.1177 154.039Z" fill="#1D1D1D"/>
<path d="M14.3084 145.637L12.7868 143.154L23.2913 134.104L24.4146 135.938L22.3018 137.691L22.3352 137.671L23.6117 139.754L26.0997 138.689L27.1414 140.389L14.3084 145.637ZM20.8843 138.858L15.617 143.208L15.6375 143.241L21.8954 140.508L20.8843 138.858Z" fill="#1D1D1D"/>
<path d="M11.6227 136.734L12.6142 138.752L10.8596 139.614L7.92834 133.648L9.68289 132.786L10.6744 134.804L21.2017 129.631L22.15 131.561L11.6227 136.734Z" fill="#1D1D1D"/>
<path d="M7.10327 131.422L6.30366 129.426L19.0069 124.338L19.8065 126.334L7.10327 131.422Z" fill="#1D1D1D"/>
<path d="M17.3284 118.689C17.6422 119.697 17.5962 120.558 17.1903 121.271C16.7845 121.984 16.059 122.504 15.0137 122.829L8.14476 124.968C7.09949 125.293 6.20735 125.277 5.46836 124.92C4.72936 124.564 4.20296 123.881 3.88915 122.873C3.57535 121.865 3.62136 121.005 4.02719 120.291C4.43301 119.578 5.15856 119.059 6.20383 118.733L13.0728 116.595C14.118 116.269 15.0102 116.285 15.7492 116.642C16.4882 116.999 17.0146 117.681 17.3284 118.689ZM15.4618 119.27C15.241 118.561 14.7013 118.34 13.8426 118.607L6.7124 120.827C5.85378 121.095 5.53489 121.583 5.75571 122.292C5.97654 123.001 6.51626 123.222 7.37487 122.955L14.5051 120.735C15.3637 120.468 15.6826 119.98 15.4618 119.27Z" fill="#1D1D1D"/>
<path d="M2.51196 116.936L1.96163 114.295L9.55383 110.576L9.54585 110.538L1.52695 112.209L1.13614 110.333L14.5329 107.542L14.9835 109.704L5.73029 114.269L5.73826 114.307L15.5179 112.269L15.9087 114.145L2.51196 116.936Z" fill="#1D1D1D"/>
<path d="M0.30542 102.01L0.150826 98.7296C0.100522 97.6621 0.349198 96.848 0.896856 96.2872C1.44451 95.7265 2.27162 95.42 3.37819 95.3679L10.291 95.0422C11.3975 94.99 12.2498 95.2173 12.8477 95.7241C13.4457 96.2308 13.7698 97.018 13.8201 98.0855L13.9747 101.366L0.30542 102.01ZM11.8692 98.2166C11.8527 97.8651 11.7359 97.6031 11.519 97.4306C11.3016 97.2452 10.9585 97.1635 10.4898 97.1856L3.38177 97.5205C2.91311 97.5426 2.57923 97.6562 2.38014 97.8613C2.18043 98.0534 2.08886 98.3252 2.10543 98.6767L2.15696 99.7702L11.9207 99.3101L11.8692 98.2166Z" fill="#1D1D1D"/>
<path d="M0.132324 92.8441L0.401154 86.9855L2.35402 87.0751L2.18377 90.7856L5.79658 90.9513L5.93189 88.0025L7.88476 88.0921L7.74945 91.041L11.9481 91.2336L12.1184 87.5232L14.0712 87.6128L13.8024 93.4714L0.132324 92.8441Z" fill="#1D1D1D"/>
<path d="M15.7936 78.4698C15.5892 79.4922 15.147 80.2079 14.4672 80.6169C13.7746 81.0234 12.8851 81.118 11.7988 80.9009L11.032 80.7476L11.4306 78.7539L12.3507 78.9378C13.2198 79.1116 13.7271 78.8342 13.8727 78.1058C13.9443 77.7479 13.8957 77.4591 13.727 77.2393C13.548 77.0042 13.2221 76.8393 12.7493 76.7448C12.187 76.6324 11.6694 76.6618 11.1965 76.8331C10.7109 77.0018 10.0988 77.3712 9.36019 77.9413C8.41966 78.657 7.60818 79.1261 6.92576 79.3485C6.23056 79.5684 5.49317 79.6004 4.71359 79.4445C3.65286 79.2325 2.88859 78.8006 2.4208 78.1489C1.94023 77.4946 1.80214 76.6562 2.00654 75.6338C2.20838 74.6242 2.65433 73.9226 3.34441 73.5289C4.02426 73.1199 4.90733 73.024 5.99363 73.2411L6.54956 73.3523L6.15099 75.346L5.46087 75.208C5.00079 75.116 4.65063 75.139 4.41038 75.2771C4.15735 75.4126 3.99635 75.6528 3.92736 75.9979C3.78684 76.7008 4.14471 77.1378 5.00097 77.309C5.48661 77.4061 5.96584 77.369 6.43868 77.1977C6.91407 77.0137 7.52108 76.6366 8.2597 76.0666C9.20279 75.338 10.0207 74.8702 10.7133 74.6632C11.4059 74.4561 12.174 74.4368 13.0175 74.6055C14.1166 74.8252 14.9051 75.2686 15.3831 75.9356C15.8637 76.5899 16.0005 77.4347 15.7936 78.4698Z" fill="#1D1D1D"/>
<path d="M3.52637 70.2596L4.10626 68.1889L17.2838 71.8791L16.7039 73.9499L3.52637 70.2596Z" fill="#1D1D1D"/>
<path d="M7.69781 63.6152L6.92951 65.728L5.09229 65.0599L7.3638 58.8134L9.20102 59.4815L8.43272 61.5943L19.456 65.6028L18.7211 67.6238L7.69781 63.6152Z" fill="#1D1D1D"/>
<path d="M8.42139 56.5905L10.9103 51.28L12.6804 52.1096L11.1041 55.4729L14.3789 57.0077L15.6317 54.3348L17.4018 55.1644L16.1491 57.8374L19.9549 59.6211L21.5312 56.2578L23.3014 57.0874L20.8125 62.3979L8.42139 56.5905Z" fill="#1D1D1D"/>
<path d="M15.0342 44.2304L16.2102 42.5242L25.4135 47.7046L25.4357 47.6724L17.353 40.8664L18.6844 38.9349L27.9209 44.0669L27.9431 44.0347L19.8272 37.277L20.8812 35.7479L31.3606 44.6571L29.8406 46.8622L21.6886 42.4302L21.6664 42.4624L28.7089 48.504L27.089 50.854L15.0342 44.2304Z" fill="#1D1D1D"/>
<path d="M21.8809 34.8936L25.6894 30.4337L27.176 31.7032L24.764 34.5278L27.5142 36.8764L29.4312 34.6316L30.9178 35.9011L29.0009 38.1459L32.1972 40.8753L34.6092 38.0507L36.0958 39.3202L32.2873 43.7801L21.8809 34.8936Z" fill="#1D1D1D"/>
<path d="M27.6099 28.539L29.9372 26.2774C30.7316 25.5054 31.4928 25.1292 32.2206 25.1488C32.9394 25.1591 33.6711 25.5475 34.4159 26.3139L34.7974 26.7065C35.2878 27.2112 35.6034 27.7042 35.7439 28.1855C35.8938 28.6576 35.8687 29.1273 35.6684 29.5945L35.6957 29.6225C36.7164 29.1395 37.7627 29.4494 38.8344 30.5523L39.6519 31.3935C40.3876 32.1506 40.7498 32.9253 40.7384 33.7178C40.7273 34.4918 40.3386 35.2512 39.5721 35.996L37.1467 38.353L27.6099 28.539ZM33.6378 30.4502C33.9462 30.1505 34.098 29.8485 34.0931 29.5443C34.0976 29.231 33.9182 28.8874 33.5549 28.5135L33.0236 27.9668C32.6784 27.6116 32.3632 27.4181 32.078 27.3864C31.8021 27.3456 31.5286 27.4569 31.2575 27.7203L30.5145 28.4424L33.0349 31.036L33.6378 30.4502ZM38.2097 34.594C38.4808 34.3306 38.6136 34.0652 38.6082 33.7979C38.5938 33.5212 38.414 33.2052 38.0688 32.8501L37.2377 31.9949C36.8018 31.5462 36.4226 31.315 36.1002 31.3011C35.7781 31.2689 35.4395 31.4253 35.0843 31.7705L34.3973 32.438L37.3265 35.4523L38.2097 34.594Z" fill="#1D1D1D"/>
<path d="M67.4909 19.0295C66.5169 19.4016 65.6696 19.4113 64.949 19.0588C64.2237 18.6941 63.6635 17.9943 63.2681 16.9594L59.543 7.2074L61.5518 6.44004L65.3328 16.3382C65.5002 16.7765 65.7064 17.0605 65.9512 17.1901C66.2083 17.3152 66.5011 17.3149 66.8298 17.1893C67.1586 17.0638 67.3709 16.871 67.467 16.6111C67.5752 16.3466 67.5456 15.9951 67.3782 15.5569L63.5972 5.65873L65.533 4.91927L69.2582 14.6713C69.6535 15.7062 69.7024 16.6013 69.405 17.3566C69.1029 18.0998 68.4649 18.6575 67.4909 19.0295Z" fill="#1D1D1D"/>
<path d="M68.1882 4.18884L70.2515 3.58277L74.1083 16.7125L72.0451 17.3186L68.1882 4.18884Z" fill="#1D1D1D"/>
<path d="M79.7981 1.4801L83.0481 1.00692C84.1056 0.852954 84.9401 1.02121 85.5515 1.51168C86.1629 2.00216 86.5484 2.79552 86.708 3.89175L87.705 10.74C87.8647 11.8362 87.7214 12.7066 87.2752 13.351C86.8291 13.9955 86.0772 14.3947 85.0197 14.5486L81.7697 15.0218L79.7981 1.4801ZM84.6993 12.6197C85.0476 12.569 85.2969 12.4274 85.4474 12.1947C85.6108 11.9602 85.6587 11.6108 85.5911 11.1465L84.5659 4.10484C84.4983 3.64055 84.3528 3.31932 84.1293 3.14113C83.9187 2.96107 83.6393 2.89639 83.2911 2.94709L82.2077 3.10481L83.616 12.7775L84.6993 12.6197Z" fill="#1D1D1D"/>
<path d="M88.9038 0.41571L94.7608 0.11302L94.8617 2.06534L91.1523 2.25704L91.3389 5.86884L94.2869 5.71648L94.3878 7.6688L91.4398 7.82116L91.6567 12.0186L95.3661 11.8269L95.467 13.7793L89.6101 14.082L88.9038 0.41571Z" fill="#1D1D1D"/>
<path d="M99.7032 14.1853C98.6613 14.1458 97.8845 13.8229 97.3727 13.2166C96.8614 12.5973 96.6268 11.7342 96.6687 10.6272L96.6983 9.84576L98.73 9.92273L98.6944 10.8604C98.6609 11.746 99.0153 12.2029 99.7576 12.231C100.122 12.2448 100.4 12.151 100.59 11.9495C100.794 11.7355 100.905 11.3876 100.923 10.9057C100.945 10.3327 100.833 9.82634 100.589 9.3867C100.346 8.93403 99.8836 8.38833 99.2036 7.74958C98.3476 6.93462 97.7556 6.20792 97.4276 5.56947C97.1002 4.918 96.9515 4.19504 96.9816 3.40061C97.0225 2.31966 97.3276 1.49652 97.8968 0.931184C98.4665 0.352825 99.2723 0.0833804 100.314 0.12285C101.343 0.161827 102.107 0.490723 102.605 1.10954C103.117 1.71582 103.351 2.57247 103.31 3.67946L103.288 4.24599L101.256 4.16902L101.283 3.46575C101.301 2.9969 101.222 2.65484 101.048 2.43956C100.874 2.21125 100.611 2.09044 100.26 2.07711C99.5434 2.04998 99.1687 2.4727 99.1356 3.34527C99.1169 3.84017 99.2296 4.30743 99.4738 4.74708C99.731 5.18721 100.2 5.72665 100.88 6.3654C101.749 7.18085 102.34 7.91407 102.655 8.56505C102.969 9.21602 103.11 9.97129 103.078 10.8308C103.035 11.9509 102.723 12.7998 102.14 13.3777C101.57 13.956 100.758 14.2252 99.7032 14.1853Z" fill="#1D1D1D"/>
<path d="M105.861 0.770081L107.998 1.01383L106.447 14.6101L104.31 14.3664L105.861 0.770081Z" fill="#1D1D1D"/>
<path d="M112.184 15.8031C111.16 15.6068 110.434 15.1692 110.007 14.4902C109.582 13.7984 109.474 12.9085 109.682 11.8205L111.036 4.75492C111.245 3.66692 111.673 2.88643 112.321 2.41345C112.971 1.92767 113.809 1.78289 114.833 1.97911C115.857 2.17533 116.581 2.61935 117.006 3.31116C117.433 3.99017 117.542 4.87368 117.334 5.96167L117.113 7.11367L115.116 6.73104L115.363 5.44465C115.532 4.56145 115.252 4.04995 114.522 3.91014C113.793 3.77033 113.343 4.14203 113.174 5.02522L111.765 12.3788C111.598 13.2492 111.88 13.7543 112.609 13.8941C113.339 14.0339 113.787 13.6686 113.954 12.7982L114.458 10.1678L113.402 9.96547L113.77 8.04548L116.822 8.63046L115.98 13.0272C115.771 14.1152 115.342 14.9021 114.692 15.3879C114.044 15.8609 113.208 15.9993 112.184 15.8031Z" fill="#1D1D1D"/>
<path d="M120.157 3.43286L122.748 4.18429L122.476 12.6339L122.513 12.6448L124.795 4.77782L126.635 5.31144L122.823 18.4544L120.702 17.8391L121.006 7.52597L120.968 7.51508L118.186 17.1094L116.346 16.5758L120.157 3.43286Z" fill="#1D1D1D"/>
<path d="M144.198 30.2462C143.353 29.6348 142.881 28.9312 142.782 28.1351C142.69 27.3286 142.969 26.4766 143.618 25.5792L149.739 17.1224L151.481 18.3833L145.268 26.9667C144.993 27.3467 144.869 27.6747 144.894 27.9506C144.93 28.2342 145.091 28.4791 145.376 28.6854C145.661 28.8917 145.938 28.9639 146.209 28.902C146.489 28.8477 146.767 28.6305 147.042 28.2504L153.254 19.667L154.933 20.882L148.812 29.3387C148.163 30.2361 147.441 30.7671 146.646 30.9319C145.859 31.086 145.043 30.8575 144.198 30.2462Z" fill="#1D1D1D"/>
<path d="M154.094 29.0289L156.743 22.4503L158.444 23.9505L156.606 28.2207L156.635 28.2465L160.672 25.9163L162.197 27.2613L156 30.7101L153.232 37.6009L151.531 36.1007L153.514 31.489L153.485 31.4631L149.127 33.9797L147.602 32.6347L154.094 29.0289Z" fill="#1D1D1D"/>
<path d="M167.805 33.3885L169.894 35.9224C170.574 36.7469 170.863 37.5477 170.76 38.3248C170.658 39.1019 170.179 39.8428 169.325 40.5476L163.985 44.9504C163.131 45.6552 162.312 45.9838 161.53 45.9364C160.747 45.889 160.016 45.453 159.336 44.6285L157.247 42.0946L167.805 33.3885ZM160.82 43.3546C161.044 43.6261 161.294 43.7659 161.571 43.774C161.856 43.7921 162.18 43.652 162.542 43.3535L168.032 38.8263C168.394 38.5278 168.593 38.2368 168.63 37.9533C168.674 37.6799 168.585 37.4074 168.361 37.1359L167.665 36.2913L160.123 42.51L160.82 43.3546Z" fill="#1D1D1D"/>
<path d="M173.435 40.6233L176.73 45.4749L175.113 46.5732L173.026 43.5006L170.035 45.5326L171.693 47.9745L170.076 49.0729L168.417 46.631L164.94 48.9925L167.027 52.0651L165.41 53.1635L162.115 48.3119L173.435 40.6233Z" fill="#1D1D1D"/>
<path d="M167.259 56.9963C166.753 56.0849 166.626 55.2532 166.879 54.5013C167.144 53.743 167.76 53.0949 168.729 52.5568L169.412 52.1771L170.4 53.9543L169.579 54.41C168.805 54.8405 168.598 55.3804 168.958 56.0297C169.136 56.3487 169.36 56.5373 169.631 56.5956C169.919 56.6588 170.274 56.5734 170.696 56.3392C171.197 56.0607 171.572 55.7031 171.822 55.2663C172.083 54.8233 172.31 54.1454 172.503 53.2327C172.757 52.0783 173.071 51.1953 173.447 50.5839C173.834 49.9661 174.375 49.4642 175.07 49.0781C176.016 48.5528 176.878 48.3869 177.657 48.5806C178.446 48.7679 179.095 49.3173 179.601 50.2287C180.101 51.1287 180.216 51.9521 179.945 52.699C179.692 53.4509 179.081 54.0959 178.112 54.6339L177.617 54.9092L176.629 53.132L177.245 52.7902C177.655 52.5623 177.907 52.318 178 52.0572C178.105 51.7901 178.072 51.5028 177.902 51.1952C177.553 50.5686 176.998 50.4673 176.234 50.8914C175.802 51.1319 175.46 51.4706 175.211 51.9073C174.968 52.3554 174.75 53.0358 174.556 53.9485C174.309 55.1144 173.989 56.0005 173.595 56.6068C173.202 57.2132 172.629 57.7253 171.877 58.143C170.897 58.6874 170.009 58.8602 169.213 58.6615C168.423 58.4741 167.772 57.9191 167.259 56.9963Z" fill="#1D1D1D"/>
<path d="M181.923 55.3079L182.823 57.2613L170.392 62.9833L169.493 61.0299L181.923 55.3079Z" fill="#1D1D1D"/>
<path d="M172.345 68.5075C171.982 67.5301 171.98 66.6828 172.34 65.9654C172.711 65.2435 173.416 64.6897 174.454 64.304L181.198 61.7989C182.237 61.4132 183.126 61.3747 183.867 61.6836C184.619 61.988 185.177 62.6289 185.54 63.6063C185.903 64.5836 185.899 65.4333 185.527 66.1551C185.168 66.8725 184.469 67.424 183.431 67.8098L182.331 68.2182L181.624 66.3123L182.851 65.8562C183.694 65.5431 183.986 65.0383 183.728 64.342C183.469 63.6456 182.918 63.454 182.075 63.7671L175.057 66.3743C174.226 66.6829 173.94 67.1854 174.198 67.8817C174.457 68.5781 175.002 68.772 175.833 68.4634L178.343 67.5308L177.969 66.5229L179.801 65.8422L180.884 68.756L176.687 70.3148C175.649 70.7006 174.753 70.7413 174.001 70.4369C173.26 70.128 172.708 69.4849 172.345 68.5075Z" fill="#1D1D1D"/>
<path d="M187.057 68.9131L187.758 71.5184L180.391 75.6657L180.401 75.7034L188.311 73.5761L188.809 75.4262L175.594 78.9802L175.02 76.8469L183.997 71.7606L183.987 71.7228L174.34 74.3172L173.842 72.4671L187.057 68.9131Z" fill="#1D1D1D"/>
<path d="M190.68 101.384L190.42 104.56C190.33 105.664 190.005 106.448 189.444 106.913C188.896 107.378 188.089 107.567 187.024 107.48L186.186 107.411C184.77 107.296 183.912 106.755 183.612 105.789L183.573 105.786C183.375 106.293 183.027 106.63 182.529 106.799C182.03 106.98 181.378 107.038 180.573 106.973L178.177 106.777C177.787 106.745 177.468 106.732 177.219 106.738C176.983 106.745 176.744 106.79 176.501 106.875L176.68 104.693C176.907 104.633 177.119 104.598 177.316 104.588C177.513 104.578 177.865 104.594 178.371 104.635L180.865 104.839C181.489 104.89 181.932 104.821 182.196 104.634C182.459 104.459 182.61 104.125 182.651 103.631L182.711 102.891L176.866 102.413L177.041 100.27L190.68 101.384ZM184.596 103.829C184.561 104.258 184.645 104.585 184.849 104.811C185.052 105.05 185.413 105.191 185.933 105.233L186.985 105.319C187.478 105.359 187.843 105.298 188.079 105.134C188.313 104.983 188.446 104.719 188.477 104.343L188.556 103.368L184.66 103.05L184.596 103.829Z" fill="#1D1D1D"/>
<path d="M189.676 110.497L188.658 116.273L186.733 115.933L187.378 112.275L183.816 111.648L183.303 114.555L181.378 114.215L181.891 111.308L177.751 110.579L177.107 114.237L175.181 113.897L176.199 108.122L189.676 110.497Z" fill="#1D1D1D"/>
<path d="M187.965 118.835L186.5 124.331L184.611 123.828L185.522 120.409L181.839 119.427L181.124 122.109L179.235 121.606L179.95 118.923L174.189 117.388L174.743 115.31L187.965 118.835Z" fill="#1D1D1D"/>
<path d="M171.622 124.593C171.984 123.602 172.542 122.945 173.298 122.625C174.053 122.304 174.945 122.331 175.973 122.706L182.731 125.173C183.759 125.549 184.459 126.102 184.83 126.834C185.201 127.566 185.206 128.428 184.844 129.42C184.482 130.412 183.923 131.068 183.168 131.389C182.412 131.709 181.52 131.682 180.492 131.307L173.734 128.84C172.706 128.464 172.006 127.911 171.635 127.179C171.264 126.447 171.26 125.585 171.622 124.593ZM173.458 125.264C173.203 125.961 173.498 126.465 174.343 126.773L181.358 129.334C182.203 129.642 182.752 129.447 183.007 128.75C183.262 128.052 182.967 127.549 182.122 127.24L175.107 124.679C174.262 124.371 173.713 124.566 173.458 125.264Z" fill="#1D1D1D"/>
<path d="M182.336 134.975L181.172 137.409L172.88 135.759L172.863 135.795L180.252 139.331L179.425 141.059L167.081 135.151L168.035 133.158L178.16 135.144L178.177 135.108L169.166 130.796L169.993 129.067L182.336 134.975Z" fill="#1D1D1D"/>
<path d="M175.606 143.568L176.761 141.639L178.438 142.643L175.025 148.347L173.347 147.343L174.502 145.414L164.437 139.39L165.542 137.544L175.606 143.568Z" fill="#1D1D1D"/>
<path d="M173.565 150.329L170.115 155.072L168.535 153.922L170.719 150.918L167.795 148.791L166.058 151.178L164.477 150.028L166.214 147.641L162.814 145.169L160.63 148.172L159.049 147.022L162.498 142.28L173.565 150.329Z" fill="#1D1D1D"/>
<path d="M152.399 153.888C153.132 153.147 153.9 152.788 154.702 152.812C155.513 152.844 156.312 153.25 157.099 154.03L162.212 159.091C162.999 159.87 163.409 160.66 163.441 161.462C163.482 162.273 163.135 163.049 162.402 163.79C161.669 164.531 160.896 164.885 160.085 164.852C159.283 164.829 158.489 164.427 157.701 163.648L156.868 162.823L158.298 161.378L159.229 162.299C159.868 162.932 160.449 162.984 160.971 162.456C161.494 161.928 161.436 161.348 160.797 160.715L155.475 155.448C154.845 154.824 154.269 154.777 153.747 155.305C153.224 155.833 153.278 156.408 153.908 157.032L155.811 158.916L156.567 158.152L157.957 159.527L155.77 161.736L152.588 158.587C151.801 157.807 151.387 157.012 151.346 156.202C151.314 155.4 151.665 154.629 152.399 153.888Z" fill="#1D1D1D"/>
<path d="M158.228 167.401L155.786 169.448C154.937 170.16 154.15 170.479 153.426 170.406C152.71 170.343 152.008 169.902 151.322 169.083L150.782 168.439C149.869 167.35 149.651 166.359 150.128 165.467L150.103 165.437C149.603 165.652 149.118 165.642 148.648 165.406C148.169 165.179 147.669 164.755 147.15 164.136L145.606 162.293C145.355 161.994 145.14 161.757 144.961 161.584C144.79 161.421 144.589 161.283 144.359 161.17L146.037 159.764C146.239 159.883 146.413 160.01 146.558 160.143C146.704 160.276 146.94 160.537 147.267 160.927L148.874 162.845C149.276 163.324 149.636 163.592 149.955 163.648C150.264 163.712 150.608 163.585 150.988 163.267L151.557 162.79L147.79 158.295L149.438 156.913L158.228 167.401ZM152.213 164.79C151.884 165.066 151.71 165.356 151.693 165.66C151.665 165.972 151.819 166.328 152.154 166.728L152.832 167.537C153.15 167.916 153.45 168.132 153.732 168.185C154.004 168.246 154.285 168.155 154.575 167.912L155.324 167.284L152.813 164.288L152.213 164.79Z" fill="#1D1D1D"/>
<path d="M149.654 174.047L147.252 175.695L137.674 165.67L139.447 164.454L141.307 166.473L141.284 166.441L143.3 165.059L142.107 162.629L143.752 161.501L149.654 174.047ZM142.544 167.829L147.16 172.865L147.192 172.843L144.14 166.734L142.544 167.829Z" fill="#1D1D1D"/>
<path d="M143.32 178.077L140.554 179.619C139.62 180.139 138.78 180.278 138.034 180.037C137.289 179.796 136.646 179.192 136.107 178.224L135.451 177.046C134.911 176.078 134.736 175.214 134.924 174.453C135.111 173.692 135.672 173.051 136.606 172.531L137.494 172.036L134.782 167.169L136.661 166.123L143.32 178.077ZM137.557 174.239C137.25 174.41 137.069 174.622 137.017 174.876C136.952 175.135 137.034 175.47 137.263 175.88L138.052 177.297C138.28 177.707 138.522 177.953 138.776 178.035C139.02 178.123 139.295 178.082 139.602 177.911L140.49 177.416L138.445 173.744L137.557 174.239Z" fill="#1D1D1D"/>
<path d="M135.737 182.038L133.769 182.906L131.521 177.808L129.41 178.739L131.658 183.837L129.691 184.704L124.17 172.183L126.137 171.315L128.622 176.95L130.732 176.019L128.248 170.385L130.216 169.517L135.737 182.038Z" fill="#1D1D1D"/>
<path d="M127.326 185.457L125.296 186.166L120.782 173.248L122.812 172.538L127.326 185.457Z" fill="#1D1D1D"/>
<path d="M111.671 174.451C112.617 174.203 113.308 174.473 113.744 175.261C114.095 175.007 114.535 174.81 115.064 174.671C116.085 174.403 116.943 174.488 117.637 174.925C118.332 175.362 118.818 176.11 119.096 177.169L120.924 184.127C121.203 185.186 121.147 186.077 120.757 186.799C120.368 187.521 119.662 188.016 118.641 188.285C117.62 188.553 116.763 188.468 116.068 188.031C115.374 187.593 114.888 186.845 114.609 185.787L112.781 178.829C112.549 177.946 112.554 177.17 112.796 176.5C112.687 176.394 112.571 176.337 112.448 176.329C112.324 176.321 112.156 176.345 111.941 176.401L111.62 176.486L111.123 174.595L111.671 174.451ZM115.561 176.562C114.843 176.751 114.598 177.28 114.826 178.15L116.724 185.372C116.952 186.242 117.426 186.583 118.144 186.394C118.863 186.205 119.108 185.676 118.879 184.806L116.982 177.583C116.753 176.714 116.28 176.373 115.561 176.562Z" fill="#1D1D1D"/>
<path d="M107.342 176.193C108.371 176.026 109.202 176.188 109.837 176.68C110.473 177.184 110.879 177.983 111.056 179.076L112.725 189.381L110.603 189.725L108.909 179.266C108.834 178.803 108.689 178.483 108.476 178.306C108.25 178.131 107.963 178.072 107.616 178.129C107.268 178.185 107.021 178.33 106.874 178.565C106.715 178.803 106.672 179.153 106.747 179.616L108.441 190.075L106.396 190.407L104.727 180.102C104.55 179.008 104.683 178.122 105.128 177.442C105.574 176.776 106.312 176.359 107.342 176.193Z" fill="#1D1D1D"/>
<path d="M103.561 190.604L97.7092 191L97.5771 189.05L101.283 188.799L101.039 185.19L98.0934 185.39L97.9614 183.439L100.907 183.24L100.623 179.046L96.9167 179.297L96.7846 177.347L102.636 176.951L103.561 190.604Z" fill="#1D1D1D"/>
<circle cx="48" cy="21" r="3" fill="#1D1D1D"/>
<circle cx="136" cy="17" r="3" fill="#1D1D1D"/>
<circle cx="184" cy="90" r="3" fill="#1D1D1D"/>
<circle cx="48" cy="170" r="3" fill="#1D1D1D"/>
</svg>
