<svg width="58" height="58" viewBox="0 0 58 58" fill="none" xmlns="http://www.w3.org/2000/svg">
<g clip-path="url(#clip0_86_265)">
<path d="M43.5243 48.3287V52.1987C44.1495 52.1987 44.7468 52.1917 45.3442 52.1987C46.0319 52.2126 46.3792 52.553 46.3931 53.2408C46.4 53.887 46.4 54.5262 46.3931 55.1723C46.3722 56.7147 45.1219 57.9931 43.5868 57.9931C33.8623 58 24.1377 58 14.4201 57.9931C12.885 57.9931 11.6278 56.7147 11.6069 55.1862C11.6 54.5401 11.6 53.9009 11.6069 53.2547C11.6139 52.5599 11.9612 52.2126 12.6419 52.2056C13.2393 52.1987 13.8436 52.2056 14.4687 52.2056V47.37C14.2673 47.37 14.0589 47.37 13.8436 47.37C10.2386 47.37 6.63353 47.37 3.03545 47.37C1.22251 47.37 0.00694611 46.1541 0.00694611 44.3477C0 39.5329 0.0138922 34.7181 0 29.9102C0 29.007 0.312575 28.2705 0.944671 27.6452C2.13246 26.4641 3.32024 25.2899 4.48024 24.088C4.67473 23.8865 4.8206 23.546 4.82754 23.2681C4.85533 21.3992 4.84144 19.5233 4.84144 17.6474C4.84144 16.7581 5.14707 16.4385 6.02228 16.4385C11.0374 16.4385 16.0455 16.4385 21.0606 16.4385C21.908 16.4385 22.2345 16.7581 22.2345 17.5918C22.2345 19.4469 22.2484 21.295 22.2275 23.15C22.2275 23.5947 22.3595 23.8934 22.6721 24.1922C23.8251 25.3108 24.9504 26.4711 26.0965 27.5966C26.7634 28.2566 27.0898 29.0209 27.0759 29.9727C27.0481 31.8834 27.069 33.7871 27.069 35.7324H30.931C30.7574 31.1469 32.3341 27.3187 35.8489 24.3659C38.6273 22.0384 41.8781 21.0171 45.4831 21.288C52.4014 21.8091 57.6249 27.3604 57.9792 34.0024C58.1945 38.053 56.8608 41.5686 53.9713 44.4241C51.1025 47.2657 47.5878 48.5024 43.5313 48.3218L43.5243 48.3287ZM56.062 34.7945C56.0134 28.4025 50.8038 23.1709 44.5037 23.2056C38.0299 23.2334 32.8481 28.4373 32.869 34.8987C32.8898 41.2281 38.2175 46.4667 44.5732 46.4042C50.8872 46.3417 56.1037 41.0683 56.0551 34.8014L56.062 34.7945ZM25.138 30.5425C24.8601 30.6606 24.6587 30.7439 24.4642 30.8343C21.0745 32.3975 17.6848 33.9608 14.302 35.5379C13.788 35.7811 13.3435 35.8019 12.8156 35.5518C10.2386 34.3359 7.64072 33.1548 5.05677 31.9598C4.04263 31.4943 3.0285 31.0288 1.94491 30.5286C1.94491 30.7926 1.94491 30.9732 1.94491 31.1469C1.94491 35.4545 1.94491 39.7621 1.94491 44.0698C1.94491 45.1119 2.27138 45.4315 3.32024 45.4315C6.32096 45.4315 9.31473 45.4315 12.3154 45.4315C16.1566 45.4315 20.0048 45.4315 23.846 45.4315C24.7073 45.4315 25.131 45.098 25.138 44.3477C25.1519 39.783 25.138 35.2114 25.138 30.5425ZM41.5655 52.1709C41.5655 50.955 41.5377 49.8086 41.5794 48.6622C41.6002 48.162 41.4335 47.9744 40.9612 47.8563C38.794 47.3144 36.9047 46.2444 35.2654 44.7229C33.3483 42.9442 32.0493 40.7835 31.3686 38.2545C31.3131 38.046 31.1116 37.7264 30.9657 37.7264C29.6877 37.6848 28.4026 37.7056 27.062 37.7056C27.062 37.9627 27.062 38.1572 27.062 38.3517C27.062 40.3041 26.9926 42.2564 27.0829 44.2087C27.1593 45.9665 25.7423 47.4672 23.8738 47.3908C21.6232 47.3005 19.3657 47.37 17.1152 47.37C16.8999 47.37 16.6915 47.37 16.4831 47.37V52.1778H41.5655V52.1709ZM20.3035 18.4116H6.81413C6.79329 18.4742 6.78635 18.495 6.78635 18.5089C6.78635 22.4136 6.77246 26.3252 6.78635 30.2298C6.78635 30.4174 7.00168 30.6953 7.18922 30.7787C9.16886 31.7166 11.1554 32.6337 13.149 33.523C13.3643 33.6203 13.7047 33.6273 13.92 33.523C15.8996 32.6337 17.8584 31.7027 19.8381 30.8134C20.2132 30.6467 20.3174 30.4313 20.3104 30.0353C20.2826 28.7291 20.3035 27.416 20.3035 26.1098C20.3035 23.553 20.3035 20.9962 20.3035 18.3977V18.4116ZM44.4551 54.1718H13.5727C13.4407 55.7837 13.6977 56.0686 15.2606 56.0686C24.4781 56.0686 33.6956 56.0686 42.92 56.0686C43.1214 56.0686 43.3229 56.0825 43.5243 56.0547C44.0731 55.9852 44.3995 55.6656 44.4551 55.1167C44.4829 54.818 44.4551 54.5192 44.4551 54.1718ZM4.81365 26.6934C4.11904 27.3882 3.43832 28.0621 2.7576 28.743C3.40359 29.0348 4.08431 29.3474 4.81365 29.6809V26.6934ZM22.2623 29.6879C23.0055 29.3405 23.6793 29.0348 24.2836 28.7499C23.6029 28.0482 22.943 27.3673 22.2623 26.6586V29.6809V29.6879Z" fill="white"/>
<path d="M43.5105 0C47.3378 0 51.1582 0 54.9855 0C56.7637 0 57.9931 1.21586 57.9931 2.98059C57.9931 7.43411 57.9931 11.8807 57.9931 16.3342C57.9931 18.1059 56.7706 19.3287 54.9994 19.3287C49.3591 19.3287 43.7258 19.3356 38.0856 19.3218C37.4674 19.3218 37.0228 19.5024 36.62 19.9748C34.7931 22.0939 32.9385 24.1921 31.0978 26.2973C30.9519 26.4641 30.8338 26.7072 30.6463 26.7767C30.3129 26.9018 29.8822 27.0755 29.6113 26.9574C29.3404 26.8462 29.0626 26.4154 29.0279 26.0958C28.9445 25.3385 29.0001 24.5673 29.0001 23.8031C29.0001 16.897 29.0001 9.9909 29.0001 3.07786C29.0001 1.18807 30.1948 0 32.0911 0C35.8976 0 39.704 0 43.5105 0V0ZM30.9311 23.4835C31.1673 23.2264 31.2992 23.0805 31.4243 22.9346C32.7232 21.4547 34.0291 19.9679 35.321 18.4811C35.967 17.7377 36.7658 17.3833 37.7591 17.3903C43.3994 17.4042 49.0327 17.3972 54.6729 17.3903C55.7287 17.3903 56.0552 17.0707 56.0552 16.0355C56.0552 11.7834 56.0552 7.53833 56.0552 3.2863C56.0552 2.24413 55.7356 1.92453 54.6798 1.92453C47.2336 1.92453 39.7804 1.92453 32.3342 1.92453C31.2367 1.92453 30.9242 2.23023 30.9242 3.31409C30.9242 9.8172 30.9242 16.3203 30.9242 22.8234V23.4696L30.9311 23.4835Z" fill="white"/>
<path d="M12.621 9.66435C12.3987 9.66435 12.1764 9.66435 11.9611 9.66435C8.37689 9.66435 4.7927 9.66435 1.20851 9.66435C0.326357 9.66435 0.013782 9.3517 0.00683594 8.46933C0.00683594 6.03067 0.00683594 3.59895 0.00683594 1.16028C0.00683594 0.319597 0.326357 0 1.17378 0C9.41187 0 17.643 0 25.8741 0C26.7494 0 27.0619 0.319598 27.0619 1.20196C27.0619 3.61979 27.0619 6.03761 27.0619 8.44849C27.0619 9.35865 26.7494 9.6574 25.8186 9.6574C24.6099 9.6574 23.4083 9.6574 22.2205 9.6574C22.0052 10.1646 21.769 10.6301 21.6162 11.1164C21.5676 11.2762 21.6787 11.5611 21.8107 11.6931C22.9915 12.902 24.1932 14.0901 25.3879 15.292C25.5268 15.431 25.6588 15.5769 25.8116 15.7367C25.3462 16.1953 24.9086 16.633 24.4224 17.1054C23.2485 15.9243 22.0399 14.771 20.9007 13.5551C20.3659 12.9854 19.9838 12.7978 19.1573 13.1591C16.5872 14.2777 13.6837 12.8603 12.8016 10.1924C12.746 10.0256 12.6904 9.85889 12.621 9.6574V9.66435ZM25.1101 1.97317H1.98648V7.71203H12.6349C13.3434 5.42621 14.9618 3.99497 16.9484 3.86991C18.0181 3.80043 19.0253 4.00192 19.9422 4.57858C21.123 5.31505 21.8246 6.3989 22.158 7.69813H25.1031V1.97317H25.1101ZM17.386 11.5958C18.928 11.6167 20.2825 10.2896 20.2964 8.73335C20.3103 7.17705 19.0114 5.84308 17.4485 5.80834C15.8787 5.7736 14.5103 7.12147 14.5103 8.69861C14.5103 10.2549 15.8231 11.575 17.386 11.5958Z" fill="white"/>
<path d="M39.6276 34.8152C39.6276 33.2033 39.6276 31.5915 39.6276 29.9796C39.6276 28.8054 40.1624 27.923 41.1904 27.3881C42.1976 26.86 43.2395 26.9017 44.1564 27.5687C46.4 29.2084 48.6297 30.855 50.8177 32.5711C52.2695 33.7036 52.2486 35.913 50.7969 37.0455C48.6228 38.7407 46.407 40.3804 44.1842 42.0062C43.2465 42.694 42.1907 42.7426 41.1626 42.1938C40.1346 41.6449 39.6206 40.7625 39.6206 39.5883C39.6206 37.9973 39.6206 36.4063 39.6206 34.8152H39.6276ZM41.5586 34.7944C41.5586 36.3229 41.5586 37.8514 41.5586 39.3799C41.5586 39.8524 41.6767 40.2484 42.1351 40.4846C42.5866 40.7139 42.9478 40.5055 43.2951 40.2484C45.3025 38.7407 47.3169 37.2331 49.3243 35.7184C50.137 35.107 50.144 34.4887 49.3243 33.8703C47.3308 32.3696 45.3373 30.8758 43.3437 29.3821C42.9825 29.1111 42.6213 28.861 42.1351 29.1042C41.6419 29.3473 41.5516 29.7711 41.5586 30.2644C41.5655 31.7721 41.5586 33.2798 41.5586 34.7944Z" fill="white"/>
<path d="M8.7312 20.3223H18.3238V22.1982H8.7312V20.3223Z" fill="white"/>
<path d="M18.3378 24.2061V26.0681H8.7522V24.2061H18.3378Z" fill="white"/>
<path d="M18.3377 28.069V29.924H8.74512V28.069H18.3377Z" fill="white"/>
<path d="M53.1308 4.87732V6.73237H33.8623V4.87732H53.1308Z" fill="white"/>
<path d="M53.1307 8.74036V10.6024H33.8831V8.74036H53.1307Z" fill="white"/>
<path d="M47.3307 12.6102V14.4653H33.8552V12.6102H47.3307Z" fill="white"/>
</g>
<defs>
<clipPath id="clip0_86_265">
<rect width="58" height="58" fill="white"/>
</clipPath>
</defs>
</svg>
