<svg width="61" height="58" viewBox="0 0 61 58" fill="none" xmlns="http://www.w3.org/2000/svg">
<g clip-path="url(#clip0_86_283)">
<path d="M61 44.4482C60.5821 45.3776 60.0067 46.143 58.9381 46.3959C58.9176 46.3959 58.897 46.4164 58.8833 46.4164C57.8969 46.2524 57.6298 46.9221 57.4174 47.667C57.3558 47.872 57.1982 48.0566 57.1639 48.2616C57.1297 48.4598 57.1366 48.7331 57.2462 48.863C58.4038 50.2639 58.3627 51.6512 57.0955 52.9292C56.6502 53.3802 56.2049 53.8381 55.746 54.2755C54.6431 55.3211 53.1019 55.3484 51.999 54.3233C51.6976 54.0431 51.4578 53.9816 51.129 54.2071C51.0468 54.2618 50.9509 54.3028 50.8619 54.3302C49.9645 54.5625 49.4028 54.9589 49.2864 56.0523C49.1562 57.2346 47.9917 57.9863 46.7861 58C46.0942 58.0068 45.3955 58 44.7037 58C43.087 58 41.9499 56.9612 41.8677 55.3484C41.8472 54.9725 41.7376 54.7949 41.3814 54.6787C40.8197 54.4873 40.2853 54.2413 39.6962 53.9953C39.0592 54.6924 38.2646 55.1844 37.2576 55.0272C36.7644 54.952 36.2232 54.788 35.8465 54.4873C35.1272 53.9064 34.4628 53.2367 33.86 52.5328C32.9489 51.4667 33.0243 50.0111 34.0175 48.9791C34.2847 48.6989 34.3121 48.5076 34.134 48.1727C33.86 47.6465 33.6682 47.0861 33.4147 46.4779C33.2435 46.4779 33.0243 46.4779 32.8119 46.4779C29.6746 46.4779 26.5372 46.4779 23.3999 46.4779C22.756 46.4779 22.2902 46.1157 22.1737 45.569C22.0504 44.9813 22.3039 44.4004 22.8382 44.1954C23.0848 44.0997 23.3793 44.086 23.6533 44.086C25.6193 44.0792 27.5853 44.086 29.5513 44.086C29.7636 44.086 29.9828 44.086 30.2911 44.086C30.2911 43.3616 30.2911 42.6782 30.2911 41.988C30.2911 40.1155 31.2432 39.0835 33.0996 38.899C33.264 38.8854 33.4901 38.7282 33.5586 38.5847C33.8257 38.0106 34.0449 37.416 34.2984 36.7873C33.7435 36.2338 33.264 35.605 33.2366 34.7235C33.2161 33.9239 33.449 33.2473 34.0038 32.6733C34.5039 32.1607 35.0039 31.655 35.5177 31.163C36.6685 30.0627 38.1755 30.0422 39.3537 31.1356C39.6003 31.3611 39.7716 31.4021 40.073 31.2518C40.6347 30.9716 41.2238 30.7461 41.7307 30.5342C41.8609 29.967 41.902 29.4203 42.1075 28.9419C42.5048 28.0193 43.2857 27.4863 44.2789 27.4111C45.1695 27.3428 46.0737 27.3223 46.9573 27.4111C48.389 27.5546 49.3343 28.5729 49.4097 30.0148C49.4302 30.4454 49.5946 30.6026 49.9645 30.6846C50.0604 30.7051 50.1495 30.7461 50.2385 30.7939C51.0331 31.204 51.7592 31.4978 52.5675 30.6846C52.9032 30.3497 53.5882 30.3565 54.191 30.1925V18.3014H2.40438C2.40438 18.5269 2.40438 18.7388 2.40438 18.9506C2.40438 25.8461 2.40438 32.7348 2.40438 39.6303C2.40438 40.6144 2.56193 41.5574 3.08254 42.4185C3.74015 43.5051 4.67861 44.0792 5.97327 44.0723C8.179 44.0587 10.3779 44.0587 12.5836 44.0723C13.5563 44.0723 14.1386 44.8651 13.8098 45.692C13.618 46.1772 13.2481 46.4642 12.7138 46.4642C10.2135 46.4642 7.70634 46.5121 5.21291 46.4437C3.13734 46.3891 1.10971 44.6327 0.390455 42.3433C0.171252 41.6394 0.0205503 40.874 0.0205503 40.136C0 28.8667 0 17.5975 0 6.32827C0 3.47166 1.76047 0.936255 4.2265 0.211853C4.65806 0.0888418 5.12386 0.00683398 5.56912 0.00683398C20.7352 0 35.9081 0 51.0742 0C53.3279 0 55.4172 1.57865 56.2049 4.00471C56.5063 4.9273 56.657 5.93873 56.6639 6.90915C56.6981 15.0484 56.6844 23.1877 56.6776 31.3338C56.6776 31.7985 56.7872 32.1402 57.1297 32.4819C58.3764 33.7052 58.3901 35.1745 57.253 36.5003C57.1366 36.6301 57.1503 36.8967 57.1571 37.0948C57.1571 37.2247 57.2804 37.3409 57.3147 37.4707C57.5681 38.3865 57.9723 38.981 59.1025 39.0835C60.1163 39.1724 60.6506 40.0813 61 41.0107V44.4551V44.4482ZM54.1568 15.7933C54.191 15.6977 54.2116 15.6635 54.2116 15.6293C54.2116 12.4242 54.2595 9.21221 54.1979 6.00707C54.1568 3.8202 52.5675 2.38506 50.3961 2.38506C39.8743 2.38506 29.3526 2.38506 18.8309 2.38506C14.5633 2.38506 10.2957 2.39189 6.02807 2.38506C4.65121 2.38506 3.68535 3.00012 3.02089 4.15506C2.56193 4.9478 2.41123 5.82255 2.41123 6.72464C2.41123 9.55391 2.41123 12.39 2.41123 15.2193C2.41123 15.4038 2.41123 15.5951 2.41123 15.8002H54.1568V15.7933ZM55.6638 34.5321C55.5953 34.4228 55.5405 34.3134 55.4651 34.2314C55.2459 33.9991 55.0199 33.7804 54.7938 33.5548C54.1636 32.9261 53.5243 32.9261 52.8758 33.5548C52.1908 34.2246 51.7866 34.2314 50.9167 33.8009C50.033 33.3703 49.1151 32.9876 48.1835 32.6801C47.2587 32.3726 46.9573 32.065 46.9573 31.0741C46.9573 30.2313 46.5418 29.8098 45.7106 29.8098C44.7562 29.8098 44.2675 30.2791 44.2447 31.2176C44.2241 32.1129 43.9433 32.3931 43.0802 32.6869C42.1691 33.0013 41.2649 33.3635 40.4018 33.8009C39.4633 34.2724 39.0866 34.2656 38.3468 33.5412C37.3056 32.5229 37.5864 32.5093 36.5178 33.5617C35.8602 34.2086 35.8602 34.8692 36.5178 35.5435C37.148 36.1859 37.1686 36.596 36.7781 37.4024C36.3602 38.2703 35.9561 39.1519 35.6478 40.0676C35.3053 41.0859 35.0382 41.3456 33.9627 41.3524C33.1453 41.3524 32.7366 41.7602 32.7366 42.5757C32.7366 43.5507 33.2206 44.0473 34.1888 44.0655C35.0382 44.0792 35.3464 44.3799 35.6273 45.1931C35.9492 46.1225 36.3191 47.0383 36.7507 47.9199C37.196 48.822 37.1891 49.2047 36.4767 49.9222C35.4286 50.9815 35.4218 50.7081 36.4562 51.7469C37.1229 52.4166 37.7988 52.4166 38.4838 51.7469C39.1071 51.1387 39.5113 51.125 40.2922 51.5009C41.1964 51.9314 42.128 52.3278 43.0733 52.6558C43.9912 52.9702 44.2858 53.2845 44.2926 54.2755C44.3132 55.7448 44.046 55.6013 45.6147 55.6013C47.156 55.6013 46.9916 55.7858 47.0053 54.2618C47.0053 53.2572 47.2861 52.9702 48.2314 52.6558C49.1288 52.362 50.0125 52.0066 50.855 51.5829C51.814 51.1045 52.1428 51.0977 52.9032 51.8494C53.5151 52.4554 54.1202 52.4576 54.7185 51.8562C55.3898 51.182 55.3966 50.5054 54.739 49.8266C54.102 49.1705 54.102 48.8151 54.513 47.9745C54.9377 47.1135 55.3213 46.2182 55.6295 45.3093C55.9652 44.3184 56.2186 44.0723 57.2804 44.0655C58.7395 44.0655 58.5751 44.1817 58.5819 42.7534C58.5819 41.824 58.1275 41.357 57.2188 41.3524C57.1777 41.3524 57.1366 41.3524 57.1023 41.3524C56.3282 41.3319 55.972 41.0312 55.7186 40.3068C55.4309 39.4662 55.1569 38.6188 54.7596 37.8261C53.9992 36.3021 53.965 36.3158 55.1843 35.0925C55.2802 34.9968 55.3829 34.9011 55.4788 34.7986C55.5405 34.7235 55.5884 34.6414 55.6569 34.5458L55.6638 34.5321Z" fill="#1D1D1D"/>
<path d="M26.8523 31.1561C25.8659 30.049 24.9069 28.9761 23.9548 27.8895C23.578 27.4589 23.5095 26.9737 23.8109 26.468C24.1123 25.9623 24.585 25.7778 25.133 25.9281C25.4001 26.0033 25.6673 26.1946 25.8591 26.3996C26.914 27.5546 27.9552 28.7232 28.9827 29.8986C29.7362 30.7529 29.7499 31.532 29.0101 32.3862C27.9689 33.5822 26.914 34.7576 25.8522 35.9331C25.2905 36.5549 24.5507 36.6096 24.0164 36.1176C23.4889 35.6255 23.4889 34.949 24.037 34.3271C24.9617 33.2746 25.9002 32.2359 26.8523 31.1629V31.1561Z" fill="#1D1D1D"/>
<path d="M9.47356 31.1562C10.4326 32.2359 11.3779 33.2747 12.3026 34.334C13.0014 35.1404 12.6931 36.2543 11.7067 36.3842C11.3505 36.432 10.8436 36.2748 10.597 36.022C9.41876 34.7918 8.28849 33.5139 7.17878 32.2154C6.60337 31.5457 6.63077 30.7256 7.21303 30.0491C8.3022 28.7916 9.41191 27.5478 10.5353 26.3177C11.0285 25.771 11.7889 25.7368 12.2889 26.1879C12.8027 26.6526 12.837 27.3633 12.3369 27.9374C11.4053 29.0103 10.4463 30.0627 9.47356 31.1562Z" fill="#1D1D1D"/>
<path d="M16.9539 37.3203C16.1867 37.3135 15.6113 36.6232 15.7826 35.8783C16.5566 32.5775 17.3444 29.2767 18.1458 25.9827C18.3239 25.2515 18.961 24.8415 19.6049 24.985C20.3036 25.1422 20.6872 25.7709 20.5023 26.5363C19.735 29.7961 18.961 33.0627 18.1732 36.3157C18.0157 36.9786 17.5567 37.3271 16.9539 37.3203Z" fill="#1D1D1D"/>
<path d="M18.05 46.4711C17.3856 46.4779 16.8239 45.9517 16.8102 45.3025C16.7896 44.6327 17.3034 44.0997 17.9884 44.0792C18.6939 44.0587 19.2693 44.5917 19.2693 45.2683C19.2693 45.9107 18.7145 46.4642 18.05 46.4711Z" fill="#1D1D1D"/>
<path d="M41.0525 13.1896C39.3058 13.1896 37.559 13.1896 35.8122 13.1896C33.49 13.1759 31.6953 11.4196 31.6953 9.1712C31.6953 6.92282 33.49 5.13232 35.7985 5.12549C39.2921 5.11182 42.7856 5.11182 46.2791 5.12549C48.6424 5.13232 50.4234 6.89549 50.4166 9.18487C50.4029 11.4538 48.6356 13.1827 46.2928 13.1896C44.5461 13.1896 42.7993 13.1896 41.0525 13.1896ZM41.0799 7.57888C39.2989 7.57888 37.511 7.56522 35.73 7.57888C34.634 7.59255 33.949 8.50147 34.1819 9.55391C34.3326 10.2168 34.8669 10.7294 35.6341 10.7362C39.2441 10.7635 42.8472 10.7567 46.4572 10.7499C46.6696 10.7499 46.8888 10.6815 47.0806 10.5927C47.7108 10.3056 48.1013 9.58124 47.9848 8.94568C47.8478 8.15977 47.2724 7.59939 46.4915 7.59255C44.6899 7.57205 42.8815 7.58572 41.0799 7.58572V7.57888Z" fill="#1D1D1D"/>
<path d="M25.6193 9.17121C25.6193 11.4128 23.8246 13.1964 21.5709 13.1896C19.3789 13.1896 17.5499 11.3717 17.5362 9.18487C17.5225 6.99117 19.3789 5.12549 21.5846 5.12549C23.8177 5.12549 25.6193 6.92966 25.6193 9.17121ZM20.0022 9.18487C20.0091 10.0665 20.7078 10.7567 21.5915 10.7635C22.482 10.7635 23.2355 10.0255 23.2218 9.14387C23.2081 8.24862 22.4751 7.56522 21.5504 7.58572C20.6598 7.60622 19.9954 8.28962 20.0091 9.19171L20.0022 9.18487Z" fill="#1D1D1D"/>
<path d="M11.1313 13.1896C8.89129 13.1896 7.09657 11.3717 7.11712 9.1302C7.13767 6.92282 8.93239 5.12549 11.1381 5.11865C13.3507 5.11865 15.2071 6.95016 15.2071 9.15754C15.2071 11.3786 13.3781 13.1896 11.1381 13.1828L11.1313 13.1896ZM11.1724 7.57889C10.2545 7.56522 9.52835 8.26912 9.52835 9.16437C9.52835 10.0255 10.2476 10.743 11.1176 10.7567C12.0149 10.7704 12.7547 10.0528 12.7479 9.15754C12.7479 8.27595 12.0629 7.58572 11.1724 7.57889Z" fill="#1D1D1D"/>
<path d="M45.6147 50.0316C41.6074 50.0247 38.2577 46.6624 38.2851 42.6714C38.3125 38.653 41.6416 35.3522 45.6626 35.359C49.7247 35.3727 53.0265 38.6872 53.0128 42.7466C52.9991 46.7513 49.6631 50.0384 45.6147 50.0247V50.0316ZM50.5604 42.7466C50.5947 40.054 48.4301 37.8124 45.7722 37.7919C43.0527 37.7646 40.7854 39.9036 40.7443 42.521C40.7032 45.3435 42.8061 47.5372 45.601 47.585C48.3205 47.6328 50.5262 45.4733 50.5604 42.7466Z" fill="#1D1D1D"/>
</g>
<defs>
<clipPath id="clip0_86_283">
<rect width="61" height="58" fill="white"/>
</clipPath>
</defs>
</svg>
