<svg width="54" height="58" viewBox="0 0 54 58" fill="none" xmlns="http://www.w3.org/2000/svg">
<g clip-path="url(#clip0_86_257)">
<path d="M48.5588 58C48.2655 57.8876 47.9673 57.7851 47.674 57.6679C45.9776 56.9988 44.8239 55.3676 44.819 53.5508C44.8092 44.6379 44.8141 35.7298 44.8043 26.8169C44.8043 26.519 44.7897 26.2113 44.7212 25.9232C44.5599 25.2443 44.0124 24.8243 43.3377 24.8048C42.624 24.7853 42.0471 25.1857 41.8516 25.8695C41.7831 26.1185 41.7587 26.3871 41.7587 26.6509C41.7489 28.2381 41.7587 29.8204 41.7538 31.4077C41.7391 33.5419 40.0379 35.2317 37.8918 35.2512C35.7652 35.2708 34.0004 33.6005 33.9466 31.4761C33.9124 30.2307 33.9369 28.9853 33.9369 27.74C33.9369 27.5544 33.9369 27.3688 33.9369 27.149C33.3796 27.2858 32.8711 27.4225 32.3578 27.5299C31.2383 27.7644 30.1139 27.7448 28.9798 27.569C28.7451 27.5348 28.4078 27.7009 28.222 27.8865C22.8494 33.2293 17.4914 38.582 12.1335 43.9346C10.9162 45.1507 9.70383 46.3668 8.48167 47.5779C7.08352 48.9601 5.40182 49.4094 3.53436 48.8624C1.61312 48.2959 0.434956 46.9479 0.078085 44.9798C-0.225011 43.29 0.293186 41.8102 1.51046 40.5941C3.66146 38.4404 5.81247 36.2964 7.96347 34.1426C12.373 29.7374 16.7826 25.3274 21.2019 20.9319C21.505 20.6291 21.5881 20.3605 21.5197 19.9405C20.6886 14.71 24.36 10.2657 28.7451 9.53315C30.3046 9.27431 31.8885 9.13756 33.4627 8.98128C33.8831 8.94221 33.9369 8.75174 33.932 8.40011C33.9222 7.02776 33.8586 5.65541 34.3622 4.32214C35.3497 1.76302 37.8331 0.00974091 40.5756 -2.66882e-05C42.844 -2.66882e-05 45.1123 -0.00491049 47.3806 -2.66882e-05C50.9249 0.00974091 53.9314 2.95467 53.9852 6.49543C54.0145 8.64918 53.995 10.7981 53.9901 12.9518C53.9901 13.6453 53.6626 14.0409 53.115 14.036C52.5724 14.036 52.2693 13.6551 52.2644 12.9323C52.2595 10.9299 52.2742 8.92756 52.2595 6.93008C52.24 4.39539 50.8369 2.49071 48.5295 1.88512C48.0406 1.75814 47.5224 1.70442 47.0189 1.69954C44.9754 1.68 42.9369 1.68488 40.8934 1.69465C37.9504 1.70442 35.8874 3.61398 35.6821 6.53938C35.643 7.09613 35.6772 7.66265 35.6772 8.40499C36.3861 7.97033 36.9874 7.61382 37.5789 7.23776C38.8793 6.40263 40.3899 6.98381 40.7761 8.48313C40.8347 8.71756 40.8836 8.96174 40.9227 9.20105C41.3578 11.936 41.4849 14.6758 40.957 17.4156C40.8347 18.0505 40.4436 18.407 39.9499 18.324C39.4317 18.241 39.1482 17.8161 39.2655 17.1616C39.7299 14.4902 39.637 11.8285 39.153 9.17175C39.0308 8.49778 38.8793 8.42453 38.3122 8.82988C36.4887 10.1339 34.4208 10.6662 32.2209 10.8713C30.8717 10.9983 29.4931 11.0813 28.2025 11.4525C24.4382 12.5367 22.2237 16.9321 23.4605 20.6487C23.4849 20.7268 23.5143 20.805 23.5143 20.8098C24.1693 19.7842 24.8146 18.7342 25.5088 17.7135C25.7924 17.2984 26.1688 16.937 26.5257 16.5756C26.9021 16.1995 27.3958 16.1898 27.7429 16.5072C28.1145 16.8491 28.1389 17.357 27.7527 17.7624C26.8385 18.7293 25.9977 19.7501 25.4893 20.9857C25.2644 21.5375 25.0933 22.1285 25.0249 22.7194C24.9124 23.6766 25.4648 24.1845 26.3986 23.9599C27.1954 23.7694 27.9727 23.4569 28.7353 23.1443C29.1655 22.9636 29.5469 22.6657 29.9526 22.4264C30.4366 22.1431 30.9352 22.2408 31.1943 22.6559C31.4583 23.0759 31.3557 23.5887 30.8717 23.8769C29.9184 24.4385 28.9358 24.9562 27.958 25.4934C30.0748 26.226 32.1672 26.1381 34.196 25.0441C35.7065 24.2285 36.7576 22.9587 37.6327 21.518C38.1118 20.7268 38.5322 20.5119 39.0504 20.8147C39.5735 21.1224 39.5979 21.5864 39.1286 22.3873C38.3073 23.789 37.2758 25.0001 35.9754 25.9818C35.8239 26.099 35.6772 26.3383 35.6723 26.519C35.6479 28.1062 35.6381 29.6886 35.6723 31.2758C35.6919 32.4382 36.3616 33.244 37.4176 33.4833C38.3122 33.6884 39.3437 33.2342 39.7495 32.3796C39.9303 32.0035 40.0232 31.5493 40.033 31.1293C40.0672 29.5274 40.0428 27.9207 40.0477 26.3139C40.0526 24.4873 41.4507 23.0662 43.2497 23.0466C45.0536 23.0271 46.5056 24.4727 46.5105 26.3188C46.5105 35.2854 46.5105 44.2521 46.5105 53.2187C46.5105 54.7913 47.4051 55.9097 48.8912 56.2125C50.392 56.5202 51.9613 55.436 52.1862 53.922C52.24 53.5508 52.2546 53.1699 52.2546 52.7938C52.2546 41.1069 52.2546 29.42 52.2546 17.7379C52.2546 17.5133 52.2448 17.2837 52.2644 17.0591C52.3084 16.5658 52.6457 16.224 53.0857 16.2142C53.5354 16.1995 53.9265 16.5707 53.9754 17.0689C53.9901 17.2544 53.9803 17.4449 53.9803 17.6354C53.9803 29.3956 53.9803 41.1558 53.9803 52.9208C53.9803 55.6216 52.8315 57.1502 50.2258 57.9267C50.1916 57.9365 50.1623 57.9658 50.1329 57.9853H48.5441L48.5588 58ZM22.4485 31.0902C20.9819 29.6104 19.4958 28.116 18.0488 26.6557C17.4181 27.2955 16.7582 27.9597 16.0982 28.6239C16.8461 29.4981 16.9488 29.8302 16.5284 30.2502C16.3915 30.387 16.1324 30.5628 16.0004 30.5188C15.5604 30.3674 15.1547 30.1232 14.5974 29.8498C14.5387 29.9279 14.4263 30.1281 14.2649 30.2893C10.5007 34.0547 6.73642 37.8152 2.96728 41.5806C2.80595 41.7418 2.64463 41.8981 2.49797 42.0739C1.30025 43.4658 1.52512 45.5756 2.98683 46.6842C4.34587 47.7147 6.05201 47.5682 7.33773 46.2837C11.2438 42.3913 15.14 38.4941 19.0411 34.5968C19.1291 34.5089 19.2025 34.4015 19.3296 34.2501C18.9238 33.8691 18.5327 33.5175 18.1612 33.1414C17.7261 32.7019 17.7017 32.2135 18.0634 31.8472C18.4252 31.4761 18.9238 31.4956 19.3589 31.9205C19.7451 32.3014 20.1118 32.7019 20.4637 33.0731C21.1775 32.3551 21.8277 31.7056 22.4485 31.0854V31.0902ZM23.788 29.6739C24.7169 28.746 25.6799 27.7839 26.6479 26.8169C24.6973 25.8792 23.2258 24.375 22.2628 22.441C21.2655 23.4373 20.3073 24.3945 19.4029 25.2981C20.8646 26.7583 22.3557 28.2479 23.788 29.6739Z" fill="white"/>
<path d="M41.798 42.7039C41.7491 43.3779 41.7834 44.0714 41.6367 44.7258C41.1967 46.7233 39.4124 47.9247 37.3249 47.7001C35.4672 47.4998 33.9664 45.8393 33.942 43.9054C33.9273 42.8505 33.8882 41.7809 34.0495 40.7504C34.3673 38.709 36.2103 37.4294 38.3564 37.6199C40.2141 37.786 41.7345 39.5002 41.7491 41.4586C41.7491 41.8737 41.7491 42.2888 41.7491 42.7039C41.7638 42.7039 41.7785 42.7039 41.7931 42.7039H41.798ZM40.0968 42.6649H40.0479C40.0479 42.2449 40.0675 41.8297 40.0479 41.4146C39.9746 40.2425 39.0604 39.3439 37.9311 39.3048C36.7823 39.2706 35.7997 40.0911 35.7166 41.2779C35.6481 42.2351 35.6579 43.2021 35.7361 44.1593C35.8192 45.1654 36.6845 45.937 37.6525 45.9956C38.772 46.0689 39.7106 45.4486 39.9452 44.3986C40.0723 43.837 40.0528 43.2412 40.1017 42.66L40.0968 42.6649Z" fill="white"/>
<path d="M44.3742 13.7626C44.3742 12.3707 44.3644 10.9739 44.3742 9.58203C44.3791 8.98132 44.7408 8.61504 45.259 8.61992C45.7479 8.62481 46.0706 8.97155 46.1146 9.55273C46.1243 9.68459 46.1146 9.81645 46.1146 9.94832C46.1146 10.72 46.1146 11.4916 46.1146 12.2632C46.1146 14.0507 46.1146 15.8431 46.1146 17.6305C46.1146 17.7819 46.1194 17.9333 46.1097 18.0847C46.0657 18.661 45.7381 19.0175 45.2542 19.0273C44.7457 19.0371 44.3742 18.6561 44.3693 18.0603C44.3546 16.6294 44.3693 15.1984 44.3693 13.7674L44.3742 13.7626Z" fill="white"/>
</g>
<defs>
<clipPath id="clip0_86_257">
<rect width="54" height="58" fill="white"/>
</clipPath>
</defs>
</svg>
